<svg width="80" height="80" viewBox="0 0 80 80" fill="none" xmlns="http://www.w3.org/2000/svg">
<path d="M56.1663 0H23.8297C17.5113 0.00742527 11.4538 2.52098 6.98634 6.98918C2.5189 11.4574 0.0063629 17.5153 0 23.8337L0 56.1703C0.00742527 62.4887 2.52098 68.5462 6.98918 73.0137C11.4574 77.4811 17.5153 79.9936 23.8337 80H56.1703C62.4887 79.9926 68.5462 77.479 73.0137 73.0108C77.4811 68.5426 79.9936 62.4847 80 56.1663V23.8297C79.9926 17.5113 77.479 11.4538 73.0108 6.98634C68.5426 2.5189 62.4847 0.0063629 56.1663 0ZM71.9539 56.1663C71.9539 58.2396 71.5456 60.2925 70.7522 62.208C69.9588 64.1234 68.7959 65.8638 67.3298 67.3298C65.8638 68.7959 64.1234 69.9588 62.208 70.7522C60.2925 71.5456 58.2396 71.9539 56.1663 71.9539H23.8297C19.6433 71.9529 15.6286 70.2891 12.6688 67.3284C9.70887 64.3678 8.04608 60.3527 8.04608 56.1663V23.8297C8.04714 19.6433 9.71095 15.6286 12.6716 12.6688C15.6322 9.70887 19.6473 8.04608 23.8337 8.04608H56.1703C60.3567 8.04714 64.3714 9.71095 67.3312 12.6716C70.2911 15.6322 71.9539 19.6473 71.9539 23.8337V56.1663Z" fill="#393939"/>
<path d="M39.998 19.3096C34.5141 19.3181 29.2574 21.5006 25.38 25.3787C21.5027 29.2567 19.3212 34.514 19.3138 39.9978C19.3202 45.4831 21.5017 50.742 25.38 54.621C29.2583 58.5 34.5168 60.6826 40.002 60.69C45.488 60.6837 50.7474 58.5016 54.6266 54.6224C58.5058 50.7432 60.6879 45.4838 60.6942 39.9978C60.6858 34.5126 58.5022 29.2546 54.6224 25.377C50.7426 21.4995 45.4833 19.3189 39.998 19.3136V19.3096ZM39.998 52.644C36.6451 52.644 33.4296 51.312 31.0587 48.9412C28.6878 46.5703 27.3559 43.3547 27.3559 40.0018C27.3559 36.6489 28.6878 33.4334 31.0587 31.0625C33.4296 28.6917 36.6451 27.3597 39.998 27.3597C43.3509 27.3597 46.5665 28.6917 48.9374 31.0625C51.3082 33.4334 52.6401 36.6489 52.6401 40.0018C52.6401 43.3547 51.3082 46.5703 48.9374 48.9412C46.5665 51.312 43.3509 52.644 39.998 52.644Z" fill="#393939"/>
<path d="M60.7303 24.4226C63.4678 24.4226 65.687 22.2034 65.687 19.466C65.687 16.7285 63.4678 14.5093 60.7303 14.5093C57.9928 14.5093 55.7736 16.7285 55.7736 19.466C55.7736 22.2034 57.9928 24.4226 60.7303 24.4226Z" fill="#393939"/>
</svg>
