<svg width="100" height="80" viewBox="0 0 100 80" fill="none" xmlns="http://www.w3.org/2000/svg">
<path d="M99.9998 9.46011C96.2517 11.097 92.282 12.1703 88.2198 12.6451C92.4836 10.1413 95.69 6.17065 97.2398 1.47513C93.1998 3.82677 88.7935 5.48314 84.2048 6.37512C82.2725 4.35115 79.9482 2.74207 77.3736 1.64602C74.799 0.549981 72.028 -0.0100367 69.2298 0.000136146C57.8999 0.000136146 48.7149 9.05011 48.7149 20.2001C48.7149 21.7801 48.8949 23.3251 49.2449 24.8001C41.1178 24.4135 33.1605 22.3371 25.8808 18.7033C18.6011 15.0695 12.1588 9.95801 6.96498 3.69513C5.14412 6.76713 4.18706 10.274 4.19499 13.8451C4.19499 20.8601 7.81498 27.0451 13.315 30.6601C10.0624 30.5551 6.88009 29.6867 4.02499 28.1251V28.3751C4.02499 38.165 11.1 46.33 20.4749 48.19C18.713 48.6575 16.8979 48.8945 15.075 48.895C13.75 48.895 12.465 48.77 11.21 48.52C12.5504 52.5596 15.1155 56.0816 18.549 58.5967C21.9826 61.1118 26.1142 62.4953 30.3699 62.555C23.0703 68.1777 14.1091 71.2152 4.89499 71.19C3.23499 71.19 1.605 71.09 0 70.91C9.40625 76.8635 20.3129 80.0163 31.4449 79.9999C69.1798 79.9999 89.8098 49.215 89.8098 22.5201L89.7398 19.9051C93.764 17.0734 97.2405 13.5343 99.9998 9.46011Z" fill="#393939"/>
</svg>
