<svg width="86" height="80" viewBox="0 0 86 80" fill="none" xmlns="http://www.w3.org/2000/svg">
<path d="M37.2643 27.748V33.256H32.9443V39.988H37.2643V60H46.1443V39.988H52.1014C52.1014 39.988 52.6628 36.76 52.9328 33.228H46.1786V28.628C46.1786 27.936 47.1471 27.012 48.1071 27.012H52.9414V20H46.3628C37.0457 20 37.2643 26.74 37.2643 27.748Z" fill="#393939"/>
<path d="M17.1429 8C14.8696 8 12.6894 8.84285 11.0819 10.3431C9.47449 11.8434 8.57143 13.8783 8.57143 16V64C8.57143 66.1217 9.47449 68.1566 11.0819 69.6569C12.6894 71.1571 14.8696 72 17.1429 72H68.5714C70.8447 72 73.0249 71.1571 74.6323 69.6569C76.2398 68.1566 77.1429 66.1217 77.1429 64V16C77.1429 13.8783 76.2398 11.8434 74.6323 10.3431C73.0249 8.84285 70.8447 8 68.5714 8H17.1429ZM17.1429 0H68.5714C73.118 0 77.4783 1.68571 80.6933 4.68629C83.9082 7.68687 85.7143 11.7565 85.7143 16V64C85.7143 68.2435 83.9082 72.3131 80.6933 75.3137C77.4783 78.3143 73.118 80 68.5714 80H17.1429C12.5963 80 8.23594 78.3143 5.02103 75.3137C1.80612 72.3131 0 68.2435 0 64V16C0 11.7565 1.80612 7.68687 5.02103 4.68629C8.23594 1.68571 12.5963 0 17.1429 0Z" fill="#393939"/>
</svg>
